<?xml version="1.0" encoding="UTF-8"?>
<svg id="Layer_1" data-name="Layer 1" xmlns="http://www.w3.org/2000/svg" viewBox="0 0 186.38 151.41">
  <defs>
    <style>
      .cls-1 {
        fill: #fff;
      }
    </style>
  </defs>
  <path class="cls-1" d="m109.28,100.44c1.53-1.74,3.06-3.48,4.57-5.23,3.08-3.57,6.15-7.16,9.23-10.74,1.22-1.42,1.66-1.42,2.89-.05,15.18,16.8,30.44,33.55,45.82,50.17,4.65,5.02,9.25,10.08,13.87,15.13.34.37.93.71.6,1.33-.26.49-.85.34-1.31.34-12.68,0-25.36,0-38.03,0-1.51,0-2.59-.69-3.58-1.75-11.1-11.92-22.21-23.81-33.33-35.71-.28-.3-.48-.69-.96-.79-.42.55-.22,1.15-.22,1.71-.01,11.19,0,22.39-.01,33.58,0,2.24-.09,2.33-2.34,2.33-9.92,0-19.84,0-29.76,0-2.39,0-2.49-.11-2.49-2.54,0-34.65.02-69.29-.02-103.94,0-5.6-1.31-10.92-3.96-15.89-.75-1.41-1.65-2.71-2.82-3.82-1.3-1.24-1.22-1.61.45-2.29,8.03-3.26,15.63-7.38,23.12-11.69,5.47-3.15,10.86-6.43,16.03-10.06.48-.34.97-.76,1.57-.34.51.35.39.92.36,1.46-.08,1.53-.16,3.07-.16,4.61,0,30.72,0,61.44,0,92.16,0,.62,0,1.24,0,1.87l.45.18Z"/>
  <path class="cls-1" d="m0,123.77c.4-10.6,6.11-17.95,16.09-22.33,5.12-2.24,10.47-3.35,16.05-3.39,6.15-.04,12.3-.05,18.45-.08.42,0,.96-.12,1.1.38.18.64-.43.76-.87.91-9.94,3.25-17.53,14.68-16.4,26.94.96,10.47,6.36,18.1,15.9,22.7.44.21,1.24.18,1.06.89-.13.53-.82.33-1.27.32-4.34-.09-8.68-.56-13.03-.25-3.88.28-7.73.11-11.57-.41-5.2-.7-10.14-2.36-14.6-5.12-7.37-4.57-10.7-11.46-10.93-20.56Z"/>
  <path class="cls-1" d="m181.76,66.45c-.29,5.22-3.46,10.34-9.81,13.19-6.42,2.88-12.3,1.41-17.64-2.85-.74-.59-1.4-1.3-2.02-2.03-3.01-3.56-6.89-5.34-11.47-5.79-1.14-.11-2.21.13-3.27.5-.49.17-1,.49-1.48,0-.55-.56-.14-1.1.12-1.59,3.75-7.3,9.22-12.92,16.54-16.62,3.79-1.92,7.7-3.55,12.08-3.54,9.39.03,16.95,7.61,16.93,18.74Z"/>
  <path class="cls-1" d="m27.03,87.39c-8.38.49-15.68-5.67-16.89-13.57-.83-5.41.31-10.33,4.04-14.49,6.16-6.87,13.75-11.19,22.88-12.71,1.72-.29,3.48-.32,5.22-.44.41-.03.9-.11,1.12.37.22.48-.17.79-.43,1.11-2.4,2.88-3.65,6.18-3.53,9.95.07,2.1.67,4.06,1.58,5.94,3.95,8.11,1.76,16.39-5.66,21.51-2.59,1.79-5.42,2.6-8.34,2.34Z"/>
</svg>